<?xml version="1.0" encoding="UTF-8" standalone="no"?>
<!DOCTYPE svg PUBLIC "-//W3C//DTD SVG 1.0//EN"
 "http://www.w3.org/TR/2001/REC-SVG-20010904/DTD/svg10.dtd" [
 <!ATTLIST svg xmlns:xlink CDATA #FIXED "http://www.w3.org/1999/xlink">
]>
<!-- Generated by dot version 2.8 (Wed Dec 20 14:50:18 UTC 2006)
     For user: (voj) ,,, -->
<!-- Title: G Pages: 1 -->
<svg width="233pt" height="268pt"
 viewBox = "0 0 233 268"
 xmlns="http://www.w3.org/2000/svg" xmlns:xlink="http://www.w3.org/1999/xlink">
<g id="graph0" class="graph" style="font-family:Times-Roman;font-size:14.00;">
<title>G</title>
<polygon style="fill:white;stroke:white;" points="-2,270 -2,-2 235,-2 235,270 -2,270"/>
<!-- b -->
<g id="node2" class="node"><title>b</title>
<ellipse style="fill:black;stroke:black;" cx="62" cy="102" rx="18" ry="18"/>
</g>
<!-- c -->
<g id="node3" class="node"><title>c</title>
<ellipse style="fill:black;stroke:black;" cx="49" cy="174" rx="18" ry="18"/>
</g>
<!-- b&#45;&gt;c -->
<g id="edge5" class="edge"><title>b&#45;&gt;c</title>
<path style="fill:none;stroke:black;" d="M59,120C58,128 56,137 54,146"/>
<polygon style="fill:black;stroke:black;" points="57,147 52,156 51,146 57,147"/>
</g>
<!-- d -->
<g id="node8" class="node"><title>d</title>
<ellipse style="fill:none;stroke:black;" cx="22" cy="246" rx="18" ry="18"/>
</g>
<!-- c&#45;&gt;d -->
<g id="edge6" class="edge"><title>c&#45;&gt;d</title>
<path style="fill:none;stroke:black;" d="M43,191C40,199 36,210 32,220"/>
<polygon style="fill:black;stroke:black;" points="35,221 29,229 29,218 35,221"/>
</g>
<!-- e -->
<g id="node12" class="node"><title>e</title>
<ellipse style="fill:none;stroke:black;" cx="76" cy="246" rx="18" ry="18"/>
</g>
<!-- c&#45;&gt;e -->
<g id="edge11" class="edge"><title>c&#45;&gt;e</title>
<path style="fill:none;stroke:black;" d="M55,191C58,199 62,210 66,220"/>
<polygon style="fill:black;stroke:black;" points="69,218 69,229 63,221 69,218"/>
</g>
<!-- f -->
<g id="node4" class="node"><title>f</title>
<ellipse style="fill:black;stroke:black;" cx="143" cy="102" rx="18" ry="18"/>
</g>
<!-- g -->
<g id="node10" class="node"><title>g</title>
<ellipse style="fill:none;stroke:black;" cx="103" cy="174" rx="18" ry="18"/>
</g>
<!-- f&#45;&gt;g -->
<g id="edge9" class="edge"><title>f&#45;&gt;g</title>
<path style="fill:none;stroke:black;" d="M134,118C129,127 122,139 117,149"/>
<polygon style="fill:black;stroke:black;" points="120,151 112,158 114,148 120,151"/>
</g>
<!-- h -->
<g id="node14" class="node"><title>h</title>
<ellipse style="fill:none;stroke:black;" cx="157" cy="174" rx="18" ry="18"/>
</g>
<!-- f&#45;&gt;h -->
<g id="edge13" class="edge"><title>f&#45;&gt;h</title>
<path style="fill:none;stroke:black;" d="M146,120C148,128 150,137 152,146"/>
<polygon style="fill:black;stroke:black;" points="155,146 154,156 149,147 155,146"/>
</g>
<!-- i -->
<g id="node16" class="node"><title>i</title>
<ellipse style="fill:none;stroke:black;" cx="211" cy="174" rx="18" ry="18"/>
</g>
<!-- f&#45;&gt;i -->
<g id="edge15" class="edge"><title>f&#45;&gt;i</title>
<path style="fill:none;stroke:black;" d="M155,115C166,126 180,141 192,154"/>
<polygon style="fill:black;stroke:black;" points="194,151 199,161 189,156 194,151"/>
</g>
<!-- a -->
<g id="node6" class="node"><title>a</title>
<ellipse style="fill:black;stroke:black;" cx="102" cy="26" rx="18" ry="18"/>
<ellipse style="fill:none;stroke:black;" cx="102" cy="26" rx="22" ry="22"/>
</g>
<!-- a&#45;&gt;b -->
<g id="edge4" class="edge"><title>a&#45;&gt;b</title>
<path style="fill:none;stroke:black;" d="M92,46C87,55 81,67 76,77"/>
<polygon style="fill:black;stroke:black;" points="79,79 71,86 73,76 79,79"/>
</g>
<!-- a&#45;&gt;f -->
<g id="edge8" class="edge"><title>a&#45;&gt;f</title>
<path style="fill:none;stroke:black;" d="M113,46C118,55 124,67 129,77"/>
<polygon style="fill:black;stroke:black;" points="132,76 134,86 126,79 132,76"/>
</g>
</g>
</svg>
